<?xml version="1.0" encoding="UTF-8" standalone="no"?>
<!-- Created with Inkscape (http://www.inkscape.org/) -->

<svg
   version="1.1"
   id="svg6189"
   xml:space="preserve"
   width="30.829"
   height="31.292"
   sodipodi:docname="harvest.svg"
   inkscape:version="1.2.2 (b0a8486541, 2022-12-01)"
   inkscape:export-filename="../icons/hicolor/48x48.png"
   inkscape:export-xdpi="150.32596"
   inkscape:export-ydpi="150.32596"
   xmlns:inkscape="http://www.inkscape.org/namespaces/inkscape"
   xmlns:sodipodi="http://sodipodi.sourceforge.net/DTD/sodipodi-0.dtd"
   xmlns="http://www.w3.org/2000/svg"
   xmlns:svg="http://www.w3.org/2000/svg"><defs
     id="defs6193" /><sodipodi:namedview
     id="namedview6191"
     pagecolor="#ffffff"
     bordercolor="#000000"
     borderopacity="0.25"
     inkscape:showpageshadow="2"
     inkscape:pageopacity="1"
     inkscape:pagecheckerboard="0"
     inkscape:deskcolor="#ffffff"
     showgrid="false"
     inkscape:zoom="25.734659"
     inkscape:cx="14.999227"
     inkscape:cy="14.649504"
     inkscape:window-width="1720"
     inkscape:window-height="1371"
     inkscape:window-x="0"
     inkscape:window-y="0"
     inkscape:window-maximized="0"
     inkscape:current-layer="svg6189" /><inkscape:clipboard
     style="font-variation-settings:normal;opacity:1;vector-effect:none;fill:#ff5d00;fill-opacity:1;stroke-width:0.135593;stroke-linecap:butt;stroke-linejoin:miter;stroke-miterlimit:4;stroke-dasharray:none;stroke-dashoffset:0;stroke-opacity:1;-inkscape-stroke:none;stop-color:#000000;stop-opacity:1"
     min="0.016,0.188"
     max="30.845,31.48"
     geom-min="0.016,0.188"
     geom-max="30.845,31.48" /><rect
     style="fill:#f95b00;fill-opacity:1"
     id="rect8016"
     width="30.814474"
     height="31.280771"
     x="0.038858101"
     y="0" /><path
     style="fill:#ffffff;stroke-width:0.0376264"
     d="M 3.1323793,16.257137 3.1420139,4.0726436 3.2294061,3.8562133 C 3.4003141,3.4329526 3.7358122,3.1106998 4.1704246,2.9523456 4.3572142,2.8842874 4.4946582,2.8725629 5.2777106,2.8578902 l 0.894025,-0.016752 -0.0098,12.1482488 c -0.00926,11.479595 -0.013446,12.158914 -0.075983,12.341998 -0.1528855,0.447599 -0.5113757,0.829805 -0.9414871,1.003771 -0.1770549,0.07161 -0.2861921,0.08076 -1.1090485,0.09295 l -0.9126686,0.01352 z"
     id="path358" /><path
     style="fill:#ffffff;stroke-width:0.0376264"
     d="m 24.702581,16.274319 0.0096,-12.1844934 0.08739,-0.2164303 c 0.170908,-0.4232607 0.506405,-0.7455135 0.941018,-0.9038677 0.18679,-0.068058 0.324234,-0.079783 1.107286,-0.094455 l 0.894028,-0.016752 -0.0098,12.1482494 c -0.0093,11.479595 -0.01345,12.158914 -0.07599,12.341998 -0.152886,0.447599 -0.511375,0.829805 -0.941487,1.003771 -0.177055,0.07161 -0.286192,0.08076 -1.109048,0.09295 l -0.912669,0.01353 z"
     id="path358-3" /><path
     style="fill:#ffffff;stroke-width:0.0376264"
     d="M 7.7603728,16.235382 7.7700631,4.0350172 7.8899026,3.7820424 C 8.1237954,3.2883066 8.5557129,2.9607207 9.0710063,2.8862395 9.2039632,2.8670218 9.647151,2.8509577 10.055868,2.8505416 l 0.743122,-7.566e-4 -2.18e-4,8.795175 c -1.36e-4,5.465687 -0.01395,8.879029 -0.03649,9.016683 -0.113205,0.691272 -0.633538,1.225897 -1.3084331,1.344373 l -0.2351651,0.04129 v 3.194225 3.194225 H 8.4846813 7.7506825 Z"
     id="path360" /><path
     style="fill:#ffffff;stroke-width:0.0376264"
     d="m 12.350616,21.070377 0.0099,-7.36537 0.07882,-0.191673 c 0.180411,-0.438746 0.513502,-0.767151 0.942359,-0.929105 0.218069,-0.08235 0.247345,-0.08339 2.658761,-0.09446 l 2.438265,-0.01119 -0.01136,2.532164 -0.01136,2.532164 -0.08718,0.241451 c -0.152282,0.421772 -0.417019,0.728584 -0.805099,0.933055 l -0.19889,0.104792 -1.749628,0.01881 -1.749629,0.01881 -0.0096,4.787962 -0.0096,4.787961 h -0.752848 -0.752848 z"
     id="path362" /><path
     style="fill:#ffffff;stroke-width:0.0376264"
     d="m 20.064113,19.437051 0.0098,-9.005543 0.120729,-0.254875 c 0.228589,-0.4825833 0.707789,-0.8401301 1.183831,-0.8832963 l 0.21931,-0.019886 V 6.0616178 2.849785 h 0.752528 0.752529 l -7.57e-4,11.974607 c -4.56e-4,7.219894 -0.01471,12.071206 -0.03591,12.217889 -0.07812,0.54052 -0.433172,1.017936 -0.933211,1.254815 l -0.252975,0.119839 -0.912823,0.01283 -0.912822,0.01283 z"
     id="path364" /><path
     style="fill:#ffffff;stroke-width:0.0430901;fill-opacity:0"
     d="m 26.027496,16.428115 c 6.83e-4,-8.9913887 0.01605,-13.9292447 0.04371,-14.0491693 0.115649,-0.5013622 0.507148,-0.9934136 0.947718,-1.1911297 0.356589,-0.1600278 0.649443,-0.19486108 1.646791,-0.19587645 l 0.851031,-8.664e-4 -8.67e-4,13.71343585 c -5.07e-4,8.026118 -0.01716,13.826129 -0.04016,13.985164 -0.110379,0.763331 -0.693442,1.403873 -1.415388,1.554919 -0.12559,0.02628 -0.634592,0.04777 -1.131116,0.04777 h -0.902772 z"
     id="path366" /></svg>
