<?xml version="1.0" encoding="UTF-8" standalone="no"?>
<!-- Created with Inkscape (http://www.inkscape.org/) -->

<svg
   version="1.1"
   id="svg6189"
   xml:space="preserve"
   width="30.829"
   height="31.292"
   sodipodi:docname="h.svg"
   inkscape:version="1.2.2 (b0a8486541, 2022-12-01)"
   xmlns:inkscape="http://www.inkscape.org/namespaces/inkscape"
   xmlns:sodipodi="http://sodipodi.sourceforge.net/DTD/sodipodi-0.dtd"
   xmlns="http://www.w3.org/2000/svg"
   xmlns:svg="http://www.w3.org/2000/svg"><defs
     id="defs6193" /><sodipodi:namedview
     id="namedview6191"
     pagecolor="#ffffff"
     bordercolor="#000000"
     borderopacity="0.25"
     inkscape:showpageshadow="2"
     inkscape:pageopacity="0.0"
     inkscape:pagecheckerboard="0"
     inkscape:deskcolor="#d1d1d1"
     showgrid="false"
     inkscape:zoom="23.207167"
     inkscape:cx="16.007986"
     inkscape:cy="17.106784"
     inkscape:window-width="1720"
     inkscape:window-height="1371"
     inkscape:window-x="0"
     inkscape:window-y="0"
     inkscape:window-maximized="0"
     inkscape:current-layer="svg6189" /><inkscape:clipboard
     style="font-variation-settings:normal;opacity:1;vector-effect:none;fill:#ff5d00;fill-opacity:1;stroke-width:0.135593;stroke-linecap:butt;stroke-linejoin:miter;stroke-miterlimit:4;stroke-dasharray:none;stroke-dashoffset:0;stroke-opacity:1;-inkscape-stroke:none;stop-color:#000000;stop-opacity:1"
     min="0.016,0.188"
     max="30.845,31.48"
     geom-min="0.016,0.188"
     geom-max="30.845,31.48" /><g
     id="g6195"
     transform="translate(-0.016,-0.188)"><path
       style="fill:#ff5d00;fill-opacity:1;stroke-width:0.135593"
       d="M 13.506,19.784 V 31.48 H 11.562 V 13.897 c 0,-1.084 0.877,-1.936 1.944,-1.936 h 5.754 v 5.848 c 0,1.084 -0.838,1.975 -1.905,1.975 h -3.85 z M 30.844,0.188 v 29.317 c 0,1.084 -0.876,1.975 -1.943,1.975 H 26.996 V 2.124 c 0,-1.084 0.838,-1.936 1.905,-1.936 h 1.944 z m -7.697,0 h 1.905 v 29.317 c 0,1.084 -0.876,1.975 -1.905,1.975 H 21.203 V 9.947 c 0,-1.084 0.877,-1.936 1.944,-1.936 z M 7.713,31.48 H 5.808 V 2.124 c 0,-1.084 0.838,-1.936 1.905,-1.936 h 1.944 v 21.494 c 0,1.084 -0.877,1.975 -1.944,1.975 z m -7.697,0 V 2.124 c 0,-1.084 0.876,-1.936 1.943,-1.936 h 1.906 v 29.317 c 0,1.084 -0.839,1.975 -1.906,1.975 z"
       fill="currentColor"
       id="path2"
       sodipodi:nodetypes="cccsscsscccsscssccccsscsccccsscscccsscssc" /></g></svg>
